<svg fill="none" viewBox="0 0 77 32" xmlns="http://www.w3.org/2000/svg">
<path fill="#ffffff" d="M 29.472 24.256 L 29.472 0.288 L 32.032 0 L 32.032 14.432 L 39.168 8.16 L 42.688 8.16 L 35.712 14.272 L 42.944 24.256 L 39.712 24.256 L 33.824 15.904 L 32.032 17.472 L 32.032 24.256 L 29.472 24.256 Z M 61.664 24.256 L 67.776 15.808 L 61.824 8.16 L 64.832 8.16 L 69.536 14.112 L 73.984 8.16 L 76.864 8.16 L 71.264 15.712 L 77.408 24.256 L 74.4 24.256 L 69.504 17.44 L 64.544 24.256 L 61.664 24.256 Z M 46.88 24.256 L 46.88 10.24 L 43.904 10.24 L 43.904 8.16 L 46.88 8.16 Q 46.88 6.445 47.058 5.133 A 13.299 13.299 0 0 1 47.184 4.368 A 8.827 8.827 0 0 1 47.478 3.243 Q 47.674 2.662 47.94 2.192 A 4.737 4.737 0 0 1 48.16 1.84 Q 48.832 0.864 49.888 0.432 A 5.425 5.425 0 0 1 50.976 0.122 Q 51.502 0.027 52.104 0.006 A 9.942 9.942 0 0 1 52.448 0 Q 53.664 0 54.72 0.4 A 6.854 6.854 0 0 1 55.509 0.754 Q 56.036 1.034 56.416 1.376 L 55.296 3.296 A 6.329 6.329 0 0 0 54.224 2.643 A 5.757 5.757 0 0 0 53.968 2.528 A 3.772 3.772 0 0 0 52.629 2.243 A 4.36 4.36 0 0 0 52.48 2.24 Q 51.424 2.24 50.816 2.704 A 2.683 2.683 0 0 0 50.052 3.634 A 3.367 3.367 0 0 0 49.904 3.968 Q 49.619 4.718 49.531 5.707 A 9.28 9.28 0 0 0 49.52 5.84 A 28.561 28.561 0 0 0 49.453 7.175 A 35.69 35.69 0 0 0 49.44 8.16 L 53.44 8.16 L 53.44 10.24 L 49.44 10.24 L 49.44 24.256 L 46.88 24.256 Z M 2.944 3.68 L 5.504 3.36 L 5.504 8.16 L 10.144 8.16 L 10.144 10.24 L 5.504 10.24 L 5.504 18.784 Q 5.504 19.815 5.55 20.51 A 14.127 14.127 0 0 0 5.552 20.544 A 6.263 6.263 0 0 0 5.593 20.956 Q 5.65 21.378 5.76 21.664 A 1.569 1.569 0 0 0 5.89 21.93 Q 5.981 22.076 6.097 22.175 A 0.861 0.861 0 0 0 6.208 22.256 A 1.126 1.126 0 0 0 6.533 22.387 Q 6.672 22.421 6.834 22.429 A 2.132 2.132 0 0 0 6.944 22.432 A 4.462 4.462 0 0 0 7.953 22.28 Q 8.421 22.158 8.934 21.938 A 10.219 10.219 0 0 0 9.76 21.536 L 10.528 23.488 A 8.778 8.778 0 0 1 9.702 23.979 Q 9.273 24.202 8.871 24.338 A 4.63 4.63 0 0 1 8.56 24.432 Q 7.648 24.672 6.752 24.672 Q 5.479 24.672 4.665 24.236 A 2.492 2.492 0 0 1 3.792 23.472 A 3.603 3.603 0 0 1 3.336 22.541 Q 2.944 21.38 2.944 19.488 L 2.944 10.24 L 0 10.24 L 0 8.16 L 2.944 8.16 L 2.944 3.68 Z M 24.704 21.728 L 25.184 23.872 Q 24.448 24.096 23.664 24.256 Q 22.88 24.416 21.936 24.544 A 14.419 14.419 0 0 1 20.254 24.67 A 16.118 16.118 0 0 1 19.968 24.672 A 10.085 10.085 0 0 1 17.964 24.479 A 8.732 8.732 0 0 1 16.992 24.224 Q 15.616 23.776 14.592 22.784 A 6.228 6.228 0 0 1 13.487 21.323 A 8.207 8.207 0 0 1 12.976 20.208 A 8.587 8.587 0 0 1 12.571 18.684 Q 12.384 17.616 12.384 16.32 A 12.747 12.747 0 0 1 12.51 14.486 A 9.235 9.235 0 0 1 12.96 12.656 Q 13.536 11.072 14.544 10 Q 15.552 8.928 16.912 8.384 A 7.691 7.691 0 0 1 19.28 7.859 A 9.036 9.036 0 0 1 19.872 7.84 A 6.815 6.815 0 0 1 21.208 7.965 A 5.079 5.079 0 0 1 22.592 8.448 Q 23.744 9.056 24.496 10.096 Q 25.248 11.136 25.616 12.528 Q 25.984 13.92 25.984 15.456 L 25.504 16.864 L 15.168 16.864 Q 15.168 17.856 15.424 18.848 Q 15.68 19.84 16.304 20.64 A 4.448 4.448 0 0 0 17.513 21.705 A 5.381 5.381 0 0 0 17.936 21.936 A 4.493 4.493 0 0 0 18.99 22.292 Q 19.649 22.432 20.448 22.432 Q 21.408 22.432 22.208 22.32 Q 22.852 22.23 23.361 22.119 A 10.143 10.143 0 0 0 23.6 22.064 A 10.123 10.123 0 0 0 24.376 21.843 A 8.608 8.608 0 0 0 24.704 21.728 Z M 56.384 24.256 L 56.384 0.288 L 58.944 0 L 58.944 24.256 L 56.384 24.256 Z M 15.264 14.816 L 23.328 14.816 A 2.1 2.1 0 0 0 23.323 14.692 Q 23.312 14.499 23.27 14.135 A 33.684 33.684 0 0 0 23.232 13.825 A 5.517 5.517 0 0 0 23.02 12.864 A 6.998 6.998 0 0 0 22.784 12.224 A 4.06 4.06 0 0 0 21.919 10.948 A 4.831 4.831 0 0 0 21.696 10.736 A 2.511 2.511 0 0 0 20.556 10.165 A 3.682 3.682 0 0 0 19.744 10.08 A 5.3 5.3 0 0 0 18.804 10.159 Q 18.264 10.256 17.827 10.474 A 2.984 2.984 0 0 0 17.536 10.64 A 5.033 5.033 0 0 0 16.634 11.378 A 4.294 4.294 0 0 0 16.16 11.968 Q 15.648 12.736 15.456 13.536 A 9.792 9.792 0 0 0 15.355 14.005 Q 15.274 14.435 15.265 14.745 A 2.578 2.578 0 0 0 15.264 14.816 Z" vector-effect="non-scaling-stroke"/>
</svg>